<?xml version="1.0" encoding="utf-8"?>
<!-- Generator: Adobe Illustrator 22.0.1, SVG Export Plug-In . SVG Version: 6.00 Build 0)  -->
<svg version="1.1" id="图层_1" xmlns="http://www.w3.org/2000/svg" xmlns:xlink="http://www.w3.org/1999/xlink" x="0px" y="0px"
	 viewBox="0 0 34 34" style="enable-background:new 0 0 34 34;" xml:space="preserve">
<style type="text/css">
	.st0{fill:#767676;}
</style>
<g>
	<path class="st0" d="M14.4,0.4c-7.7,0-14,6.3-14,14s6.3,14,14,14s14-6.3,14-14S22.2,0.4,14.4,0.4z M14.4,24.4c-5.5,0-10-4.5-10-10
		s4.5-10,10-10c5.5,0,10,4.5,10,10S20,24.4,14.4,24.4z"/>
	<path class="st0" d="M33,30.2L27.8,25c-0.8-0.8-2-0.8-2.8,0c-0.8,0.8-0.8,2,0,2.8l5.1,5.1c0.8,0.8,2,0.8,2.8,0
		C33.8,32.2,33.8,30.9,33,30.2z"/>
</g>
</svg>
